<svg width="28" height="24" viewBox="0 0 28 24" fill="none" xmlns="http://www.w3.org/2000/svg">
<path d="M7 12C7 14.5737 9.093 16.6667 11.6667 16.6667C13.7212 16.6667 15.449 15.3238 16.0708 13.477L18.6655 11.9708L18.6667 12C18.6667 15.8663 15.533 19 11.6667 19C7.80033 19 4.66667 15.8663 4.66667 12C4.66667 8.13368 7.80033 5.00001 11.6667 5.00001C12.9313 5.00001 14.1143 5.34068 15.1375 5.92634L12.5592 7.42318C12.2698 7.36718 11.9723 7.33334 11.6667 7.33334C9.093 7.33334 7 9.42634 7 12ZM11.6667 9.66668C10.3775 9.66668 9.33333 10.712 9.33333 12C9.33333 13.288 10.3775 14.3333 11.6667 14.3333C12.9558 14.3333 14 13.288 14 12L13.9977 11.9825L17.9177 9.70751C19.0563 9.04834 21.0723 9.31551 22.2472 9.89301L28 6.55284L24.3157 4.72234L24.5128 0.48501L18.7437 3.83334C18.662 5.14118 17.8873 7.02534 16.7545 7.68451L12.8077 9.97584C12.4693 9.78568 12.0832 9.66668 11.6667 9.66668ZM20.9942 11.8962L21 12C21 17.1462 16.8128 21.3333 11.6667 21.3333C6.5205 21.3333 2.33333 17.1462 2.33333 12C2.33333 6.85384 6.5205 2.66668 11.6667 2.66668C13.3875 2.66668 14.9952 3.14268 16.3812 3.95818C16.7708 3.27451 16.8805 2.15684 16.5515 1.41484C15.064 0.727677 13.4132 0.333344 11.6667 0.333344C5.22317 0.333344 0 5.55651 0 12C0 18.4435 5.22317 23.6667 11.6667 23.6667C17.7718 23.6667 22.7745 18.9755 23.2832 13.001C22.932 12.4375 22.0395 11.7632 20.9942 11.8962Z" fill="#B0B6BB"/>
</svg>
